<?xml version="1.0" encoding="UTF-8"?>
<!DOCTYPE svg PUBLIC "-//W3C//DTD SVG 1.1//EN" "http://www.w3.org/Graphics/SVG/1.1/DTD/svg11.dtd">
<svg xmlns="http://www.w3.org/2000/svg" version="1.1" width="500px" height="500px" style="shape-rendering:geometricPrecision; text-rendering:geometricPrecision; image-rendering:optimizeQuality; fill-rule:evenodd; clip-rule:evenodd" xmlns:xlink="http://www.w3.org/1999/xlink">
<g><path style="opacity:1" fill="#30519e" d="M 108.5,187.5 C 122.843,188.634 137.176,189.968 151.5,191.5C 162.836,193.163 173.169,197.163 182.5,203.5C 183.686,205.481 185.019,207.481 186.5,209.5C 190.165,210.328 193.165,212.162 195.5,215C 193.244,216.834 193.244,218.501 195.5,220C 197.225,219.591 198.892,219.758 200.5,220.5C 194.859,226.138 189.692,225.804 185,219.5C 184.517,220.448 184.351,221.448 184.5,222.5C 172.506,221.371 160.506,220.204 148.5,219C 141.986,218.18 135.653,218.347 129.5,219.5C 127.418,219.472 125.584,220.139 124,221.5C 123.5,250.165 123.333,278.831 123.5,307.5C 122.596,308.209 122.263,309.209 122.5,310.5C 118.821,310.94 115.488,310.273 112.5,308.5C 112.5,307.833 112.5,307.167 112.5,306.5C 113.268,305.737 113.768,304.737 114,303.5C 114.83,278.33 114.663,253.33 113.5,228.5C 112.79,226.107 112.123,223.607 111.5,221C 108.12,219.916 104.62,219.416 101,219.5C 78.6336,220.76 56.4669,223.426 34.5,227.5C 32.8333,227.5 31.1667,227.5 29.5,227.5C 29.5,226.5 29.5,225.5 29.5,224.5C 32.5469,219.111 36.5469,214.444 41.5,210.5C 61.2565,195.636 83.5898,187.969 108.5,187.5 Z"/></g>
<g><path style="opacity:0.99" fill="#4e629e" d="M 108.5,187.5 C 114.319,186.347 120.319,186.181 126.5,187C 135.146,187.586 143.479,189.086 151.5,191.5C 137.176,189.968 122.843,188.634 108.5,187.5 Z"/></g>
<g><path style="opacity:0.439" fill="#5a6d9b" d="M 240.5,213.5 C 260.66,212.503 280.993,212.17 301.5,212.5C 301.5,217.833 301.5,223.167 301.5,228.5C 301.167,228.5 300.833,228.5 300.5,228.5C 300.5,223.5 300.5,218.5 300.5,213.5C 280.5,213.5 260.5,213.5 240.5,213.5 Z"/></g>
<g><path style="opacity:0.439" fill="#586b9a" d="M 419.5,214.5 C 399.576,213.513 379.576,213.179 359.5,213.5C 359.5,219.167 359.5,224.833 359.5,230.5C 359.167,230.5 358.833,230.5 358.5,230.5C 358.5,224.5 358.5,218.5 358.5,212.5C 379.194,211.845 399.527,212.512 419.5,214.5 Z"/></g>
<g><path style="opacity:0.441" fill="#5c6d9c" d="M 458.5,213.5 C 450.5,213.5 442.5,213.5 434.5,213.5C 434.923,215.781 434.256,217.448 432.5,218.5C 433.15,216.565 433.483,214.565 433.5,212.5C 442.017,212.174 450.35,212.507 458.5,213.5 Z"/></g>
<g><path style="opacity:0.991" fill="#435b96" d="M 344.5,225.5 C 343.442,222.603 341.442,220.436 338.5,219C 340.107,217.951 340.773,216.451 340.5,214.5C 332.082,214.198 323.748,214.531 315.5,215.5C 315.5,214.5 315.5,213.5 315.5,212.5C 323.84,212.334 332.173,212.5 340.5,213C 342.151,217.113 343.484,221.279 344.5,225.5 Z"/></g>
<g><path style="opacity:0.995" fill="#415998" d="M 419.5,214.5 C 419.5,220.833 419.5,227.167 419.5,233.5C 412.833,233.5 406.167,233.5 399.5,233.5C 405.412,231.544 411.745,230.877 418.5,231.5C 418.5,226.167 418.5,220.833 418.5,215.5C 399.194,214.55 379.86,214.217 360.5,214.5C 360.5,220.167 360.5,225.833 360.5,231.5C 366.869,231.653 373.203,231.32 379.5,230.5C 379.5,231.5 379.5,232.5 379.5,233.5C 379.167,233.5 378.833,233.5 378.5,233.5C 371.935,233.149 365.601,232.149 359.5,230.5C 359.5,224.833 359.5,219.167 359.5,213.5C 379.576,213.179 399.576,213.513 419.5,214.5 Z"/></g>
<g><path style="opacity:1" fill="#31519e" d="M 344.5,225.5 C 345.404,226.209 345.737,227.209 345.5,228.5C 345.584,234.742 347.251,240.409 350.5,245.5C 354.412,255.13 357.412,265.13 359.5,275.5C 352.8,275.83 346.134,275.497 339.5,274.5C 338.754,273.264 338.421,271.93 338.5,270.5C 338.59,267.848 337.924,265.515 336.5,263.5C 334.09,253.693 331.256,244.026 328,234.5C 326.604,239.903 325.104,245.236 323.5,250.5C 322.21,251.058 321.377,252.058 321,253.5C 319.738,260.678 317.904,267.678 315.5,274.5C 309.31,274.823 303.31,274.49 297.5,273.5C 303.368,254.194 309.368,234.861 315.5,215.5C 323.748,214.531 332.082,214.198 340.5,214.5C 340.773,216.451 340.107,217.951 338.5,219C 341.442,220.436 343.442,222.603 344.5,225.5 Z"/></g>
<g><path style="opacity:1" fill="#2d509e" d="M 399.5,233.5 C 398.504,246.99 398.171,260.656 398.5,274.5C 392.575,274.808 386.741,274.475 381,273.5C 380.831,261.326 380.331,249.326 379.5,237.5C 379.5,236.167 379.5,234.833 379.5,233.5C 379.5,232.5 379.5,231.5 379.5,230.5C 373.203,231.32 366.869,231.653 360.5,231.5C 360.5,225.833 360.5,220.167 360.5,214.5C 379.86,214.217 399.194,214.55 418.5,215.5C 418.5,220.833 418.5,226.167 418.5,231.5C 411.745,230.877 405.412,231.544 399.5,233.5 Z"/></g>
<g><path style="opacity:1" fill="#2f519d" d="M 458.5,213.5 C 461.43,219.845 463.763,226.512 465.5,233.5C 465.392,237.247 465.892,240.914 467,244.5C 467.708,245.381 468.542,246.047 469.5,246.5C 469.833,247.167 470.167,247.833 470.5,248.5C 469.322,250.338 469.655,252.005 471.5,253.5C 473.305,258.386 474.638,263.386 475.5,268.5C 475.357,270.262 475.691,271.929 476.5,273.5C 469.653,274.993 462.986,274.66 456.5,272.5C 453.895,259.527 450.395,246.86 446,234.5C 443.006,246.143 440.172,257.81 437.5,269.5C 435.744,270.552 435.077,272.219 435.5,274.5C 428.646,274.824 421.979,274.491 415.5,273.5C 421.302,255.11 426.968,236.776 432.5,218.5C 434.256,217.448 434.923,215.781 434.5,213.5C 442.5,213.5 450.5,213.5 458.5,213.5 Z"/></g>
<g><path style="opacity:0.994" fill="#405998" d="M 182.5,203.5 C 191.305,208.126 198.805,214.459 205,222.5C 206.559,224.217 207.392,226.217 207.5,228.5C 181.761,223.462 155.761,220.462 129.5,219.5C 135.653,218.347 141.986,218.18 148.5,219C 160.506,220.204 172.506,221.371 184.5,222.5C 184.351,221.448 184.517,220.448 185,219.5C 189.692,225.804 194.859,226.138 200.5,220.5C 198.892,219.758 197.225,219.591 195.5,220C 193.244,218.501 193.244,216.834 195.5,215C 193.165,212.162 190.165,210.328 186.5,209.5C 185.019,207.481 183.686,205.481 182.5,203.5 Z"/></g>
<g><path style="opacity:0.784" fill="#6675a0" d="M 29.5,224.5 C 29.5,225.5 29.5,226.5 29.5,227.5C 31.1667,227.5 32.8333,227.5 34.5,227.5C 32.3157,228.266 29.9823,228.933 27.5,229.5C 26.6926,227.422 27.3592,225.755 29.5,224.5 Z"/></g>
<g><path style="opacity:0.216" fill="#afbde8" d="M 300.5,228.5 C 300.833,228.5 301.167,228.5 301.5,228.5C 301.5,230.167 301.5,231.833 301.5,233.5C 294.5,233.5 287.5,233.5 280.5,233.5C 280.5,233.167 280.5,232.833 280.5,232.5C 287.167,232.5 293.833,232.5 300.5,232.5C 300.5,231.167 300.5,229.833 300.5,228.5 Z"/></g>
<g><path style="opacity:0.216" fill="#acbae6" d="M 358.5,230.5 C 358.833,230.5 359.167,230.5 359.5,230.5C 365.601,232.149 371.935,233.149 378.5,233.5C 371.833,233.5 365.167,233.5 358.5,233.5C 358.5,232.5 358.5,231.5 358.5,230.5 Z"/></g>
<g><path style="opacity:1" fill="#2e509e" d="M 98.5,262.5 C 96.9903,271.071 94.9903,279.404 92.5,287.5C 90.9054,289.111 89.7388,291.111 89,293.5C 88.6667,296.5 88.3333,299.5 88,302.5C 86.9354,300.604 86.1021,300.437 85.5,302C 86.1476,303.44 86.4809,304.94 86.5,306.5C 85.5,306.5 84.5,306.5 83.5,306.5C 82.9965,302.665 81.9965,302.665 80.5,306.5C 77.4794,304.577 74.1461,303.577 70.5,303.5C 54.6421,299.074 41.6421,290.408 31.5,277.5C 31.3285,275.508 31.9951,273.842 33.5,272.5C 32.6086,271.41 31.6086,271.41 30.5,272.5C 29.1319,270.363 28.1319,268.03 27.5,265.5C 24.2242,263.615 23.5576,260.948 25.5,257.5C 25.1758,255.431 24.3425,255.098 23,256.5C 22.8227,252.644 22.3227,248.977 21.5,245.5C 21.1107,242.447 21.7773,239.78 23.5,237.5C 29.5229,237.331 35.5229,236.831 41.5,236C 43.3146,235.243 44.9812,234.41 46.5,233.5C 47.8333,233.5 49.1667,233.5 50.5,233.5C 65.4744,232.177 80.4744,231.677 95.5,232C 97.0905,233.046 98.5905,234.213 100,235.5C 99.571,244.481 99.071,253.481 98.5,262.5 Z"/></g>
<g><path style="opacity:1" fill="#30529e" d="M 201.5,235.5 C 204.599,236.865 207.932,237.865 211.5,238.5C 209.816,239.854 209.316,241.521 210,243.5C 211.596,242.952 212.763,243.618 213.5,245.5C 213.5,248.5 213.5,251.5 213.5,254.5C 212.232,256.905 211.565,259.572 211.5,262.5C 211.737,263.791 211.404,264.791 210.5,265.5C 209.265,265.721 208.265,266.388 207.5,267.5C 206.167,270.167 204.833,272.833 203.5,275.5C 202.914,275.291 202.414,274.957 202,274.5C 200.872,276.345 200.372,278.345 200.5,280.5C 186.686,296.022 169.353,305.355 148.5,308.5C 144.031,291.254 139.864,273.921 136,256.5C 134.025,249.274 133.358,241.941 134,234.5C 137.687,230.332 142.354,228.666 148,229.5C 166.132,230.246 183.966,232.246 201.5,235.5 Z"/></g>
<g><path style="opacity:0.889" fill="#5a6ea2" d="M 345.5,228.5 C 347.926,233.856 349.592,239.522 350.5,245.5C 347.251,240.409 345.584,234.742 345.5,228.5 Z"/></g>
<g><path style="opacity:0.98" fill="#4f659e" d="M 46.5,233.5 C 44.9812,234.41 43.3146,235.243 41.5,236C 35.5229,236.831 29.5229,237.331 23.5,237.5C 30.9084,235.438 38.5751,234.104 46.5,233.5 Z"/></g>
<g><path style="opacity:1" fill="#2d509d" d="M 240.5,213.5 C 260.5,213.5 280.5,213.5 300.5,213.5C 300.5,218.5 300.5,223.5 300.5,228.5C 300.5,229.833 300.5,231.167 300.5,232.5C 293.833,232.5 287.167,232.5 280.5,232.5C 279.12,232.962 278.453,233.962 278.5,235.5C 279.813,248.506 279.813,261.506 278.5,274.5C 273.167,274.5 267.833,274.5 262.5,274.5C 261.884,260.359 261.217,246.359 260.5,232.5C 253.833,232.5 247.167,232.5 240.5,232.5C 240.5,226.167 240.5,219.833 240.5,213.5 Z"/></g>
<g><path style="opacity:0.909" fill="#3c568f" d="M 399.5,233.5 C 399.5,247.5 399.5,261.5 399.5,275.5C 392.833,275.5 386.167,275.5 379.5,275.5C 379.5,262.833 379.5,250.167 379.5,237.5C 380.331,249.326 380.831,261.326 381,273.5C 386.741,274.475 392.575,274.808 398.5,274.5C 398.171,260.656 398.504,246.99 399.5,233.5 Z"/></g>
<g><path style="opacity:0.529" fill="#5d73a6" d="M 465.5,233.5 C 467.056,237.652 468.39,241.985 469.5,246.5C 468.542,246.047 467.708,245.381 467,244.5C 465.892,240.914 465.392,237.247 465.5,233.5 Z"/></g>
<g><path style="opacity:0.996" fill="#576ba6" d="M 201.5,235.5 C 205.135,236.114 208.802,236.448 212.5,236.5C 213.159,239.455 213.492,242.455 213.5,245.5C 212.763,243.618 211.596,242.952 210,243.5C 209.316,241.521 209.816,239.854 211.5,238.5C 207.932,237.865 204.599,236.865 201.5,235.5 Z"/></g>
<g><path style="opacity:0.118" fill="#bdcff4" d="M 240.5,232.5 C 247.167,232.5 253.833,232.5 260.5,232.5C 260.5,246.833 260.5,261.167 260.5,275.5C 259.504,261.677 259.171,247.677 259.5,233.5C 252.978,233.823 246.645,233.49 240.5,232.5 Z"/></g>
<g><path style="opacity:1" fill="#50629d" d="M 98.5,262.5 C 99.071,253.481 99.571,244.481 100,235.5C 98.5905,234.213 97.0905,233.046 95.5,232C 80.4744,231.677 65.4744,232.177 50.5,233.5C 62.7835,231.619 75.2835,230.286 88,229.5C 92.4059,229.236 96.5726,230.069 100.5,232C 101.916,234.627 102.583,237.46 102.5,240.5C 101.987,248.128 100.654,255.461 98.5,262.5 Z"/></g>
<g><path style="opacity:0.235" fill="#a8bee0" d="M 470.5,248.5 C 471.038,250.117 471.371,251.784 471.5,253.5C 469.655,252.005 469.322,250.338 470.5,248.5 Z"/></g>
<g><path style="opacity:0.895" fill="#49609a" d="M 113.5,228.5 C 114.663,253.33 114.83,278.33 114,303.5C 113.768,304.737 113.268,305.737 112.5,306.5C 113.3,280.508 113.633,254.508 113.5,228.5 Z"/></g>
<g><path style="opacity:0.035" fill="#829dc1" d="M 213.5,254.5 C 213.706,257.495 213.04,260.162 211.5,262.5C 211.565,259.572 212.232,256.905 213.5,254.5 Z"/></g>
<g><path style="opacity:0.625" fill="#40568b" d="M 260.5,232.5 C 261.217,246.359 261.884,260.359 262.5,274.5C 267.833,274.5 273.167,274.5 278.5,274.5C 279.813,261.506 279.813,248.506 278.5,235.5C 278.453,233.962 279.12,232.962 280.5,232.5C 280.5,232.833 280.5,233.167 280.5,233.5C 280.5,247.5 280.5,261.5 280.5,275.5C 273.833,275.5 267.167,275.5 260.5,275.5C 260.5,261.167 260.5,246.833 260.5,232.5 Z"/></g>
<g><path style="opacity:1" fill="#455e9a" d="M 21.5,245.5 C 22.3227,248.977 22.8227,252.644 23,256.5C 24.3425,255.098 25.1758,255.431 25.5,257.5C 23.5576,260.948 24.2242,263.615 27.5,265.5C 28.1319,268.03 29.1319,270.363 30.5,272.5C 31.6086,271.41 32.6086,271.41 33.5,272.5C 31.9951,273.842 31.3285,275.508 31.5,277.5C 23.5738,268.382 20.2405,257.716 21.5,245.5 Z"/></g>
<g><path style="opacity:0.996" fill="#4d639c" d="M 210.5,265.5 C 208.668,271.636 205.334,276.636 200.5,280.5C 200.372,278.345 200.872,276.345 202,274.5C 202.414,274.957 202.914,275.291 203.5,275.5C 204.833,272.833 206.167,270.167 207.5,267.5C 208.265,266.388 209.265,265.721 210.5,265.5 Z"/></g>
<g><path style="opacity:0.506" fill="#939dc2" d="M 336.5,263.5 C 337.924,265.515 338.59,267.848 338.5,270.5C 337.076,268.485 336.41,266.152 336.5,263.5 Z"/></g>
<g><path style="opacity:0.996" fill="#51639e" d="M 323.5,250.5 C 321.7,258.832 320.034,267.165 318.5,275.5C 311.137,275.831 303.803,275.497 296.5,274.5C 296.624,273.893 296.957,273.56 297.5,273.5C 303.31,274.49 309.31,274.823 315.5,274.5C 317.904,267.678 319.738,260.678 321,253.5C 321.377,252.058 322.21,251.058 323.5,250.5 Z"/></g>
<g><path style="opacity:0.094" fill="#6c7fad" d="M 437.5,269.5 C 436.659,271.379 436.325,273.379 436.5,275.5C 429.137,275.831 421.803,275.497 414.5,274.5C 414.624,273.893 414.957,273.56 415.5,273.5C 421.979,274.491 428.646,274.824 435.5,274.5C 435.077,272.219 435.744,270.552 437.5,269.5 Z"/></g>
<g><path style="opacity:0.094" fill="#6174a5" d="M 475.5,268.5 C 477.163,270.438 477.829,272.772 477.5,275.5C 470.8,275.83 464.134,275.497 457.5,274.5C 457.137,273.817 456.804,273.15 456.5,272.5C 462.986,274.66 469.653,274.993 476.5,273.5C 475.691,271.929 475.357,270.262 475.5,268.5 Z"/></g>
<g><path style="opacity:0.961" fill="#445a97" d="M 92.5,287.5 C 90.845,294.152 89.1783,300.818 87.5,307.5C 86.8333,307.833 86.1667,308.167 85.5,308.5C 82.8546,307.892 80.1879,307.392 77.5,307C 74.8132,306.272 72.4799,305.105 70.5,303.5C 74.1461,303.577 77.4794,304.577 80.5,306.5C 81.9965,302.665 82.9965,302.665 83.5,306.5C 84.5,306.5 85.5,306.5 86.5,306.5C 86.4809,304.94 86.1476,303.44 85.5,302C 86.1021,300.437 86.9354,300.604 88,302.5C 88.3333,299.5 88.6667,296.5 89,293.5C 89.7388,291.111 90.9054,289.111 92.5,287.5 Z"/></g>
<g><path style="opacity:0.976" fill="#6470a4" d="M 123.5,307.5 C 123.421,308.93 123.754,310.264 124.5,311.5C 120.167,312.833 115.833,312.833 111.5,311.5C 112.127,310.583 112.461,309.583 112.5,308.5C 115.488,310.273 118.821,310.94 122.5,310.5C 122.263,309.209 122.596,308.209 123.5,307.5 Z"/></g>
</svg>
